<svg width="24" height="24" viewBox="0 0 24 24" fill="none" xmlns="http://www.w3.org/2000/svg">
<path d="M23.8711 9.07554C23.7573 8.70685 23.5425 8.37739 23.2511 8.12447C22.9597 7.87155 22.6033 7.70526 22.2222 7.64443L16.5156 6.75554L14.0044 1.55554C13.8376 1.20509 13.5751 0.908957 13.2471 0.701341C12.9192 0.493726 12.5392 0.38309 12.1511 0.382207C11.7654 0.381383 11.3871 0.48829 11.0589 0.690884C10.7306 0.893477 10.4655 1.18371 10.2933 1.52887L7.69333 6.68443L1.93333 7.47554C1.54523 7.52565 1.17914 7.68422 0.877112 7.93303C0.575085 8.18185 0.349372 8.51082 0.225905 8.88215C0.102438 9.25348 0.086225 9.6521 0.179128 10.0322C0.272031 10.4124 0.470281 10.7586 0.751104 11.0311L4.85333 15.0933L3.8311 20.7778C3.76125 21.1601 3.79992 21.5544 3.94275 21.9159C4.08557 22.2774 4.32683 22.5916 4.63916 22.823C4.95149 23.0544 5.3224 23.1936 5.70983 23.2249C6.09726 23.2561 6.4857 23.1782 6.8311 23L11.9644 20.3333L17.0489 23.0667C17.3913 23.2516 17.7788 23.3363 18.1671 23.3112C18.5554 23.286 18.9288 23.152 19.2444 22.9244C19.5629 22.6994 19.8112 22.3888 19.9606 22.0286C20.11 21.6684 20.1545 21.2733 20.0889 20.8889L19.16 15.2L23.3244 11.2C23.6058 10.9329 23.8062 10.592 23.9029 10.2163C23.9996 9.84059 23.9886 9.44527 23.8711 9.07554Z" fill="#F9B42F"/>
</svg>
