<svg width="22" height="22" viewBox="0 0 22 22" fill="none" xmlns="http://www.w3.org/2000/svg">
<path d="M21.7111 8.48886C21.6108 8.17366 21.4246 7.8927 21.1733 7.67757C20.9221 7.46243 20.6158 7.32166 20.2889 7.27108L15 6.4533L12.6533 1.62664C12.5093 1.32847 12.2849 1.07646 12.0053 0.89899C11.7258 0.721522 11.4022 0.625655 11.0711 0.622192C10.7421 0.622366 10.4195 0.713862 10.1394 0.886493C9.85925 1.05912 9.63253 1.30612 9.48446 1.59997L7.05335 6.38664L1.72001 7.11553C1.39095 7.16037 1.08103 7.29649 0.825365 7.50846C0.569705 7.72043 0.378532 7.99978 0.273511 8.31484C0.168491 8.6299 0.153821 8.96809 0.231167 9.29106C0.308512 9.61403 0.474779 9.90888 0.711124 10.1422L4.51557 13.9155L3.59112 19.1911C3.53273 19.5175 3.56678 19.8537 3.68943 20.1618C3.81207 20.4698 4.01843 20.7374 4.28519 20.9344C4.55194 21.1313 4.86846 21.2498 5.19897 21.2763C5.52949 21.3028 5.86083 21.2363 6.15557 21.0844L10.92 18.6311L15.6445 21.1644C15.9039 21.3044 16.1941 21.3778 16.4889 21.3777C16.7465 21.3773 17.001 21.3209 17.2347 21.2123C17.4684 21.1038 17.6757 20.9458 17.8422 20.7492C18.0088 20.5527 18.1306 20.3222 18.1993 20.0739C18.268 19.8256 18.2819 19.5653 18.24 19.3111L17.3778 14.0177L21.2489 10.3111C21.4885 10.0809 21.6589 9.78815 21.7406 9.46607C21.8223 9.14398 21.8121 8.80544 21.7111 8.48886ZM16.1467 12.7377C15.9387 12.9372 15.7822 13.1842 15.6909 13.4575C15.5995 13.7308 15.5759 14.0222 15.6222 14.3066L16.4845 19.5955L11.76 17.0622C11.505 16.9283 11.2213 16.8583 10.9333 16.8583C10.6453 16.8583 10.3617 16.9283 10.1067 17.0622L5.34224 19.5066L6.2889 14.2311C6.34004 13.9474 6.32145 13.6556 6.23473 13.3808C6.14802 13.1059 5.99578 12.8562 5.79112 12.6533L1.98224 8.87553L7.31557 8.15108C7.59908 8.10967 7.86839 8.00034 8.10054 7.83242C8.3327 7.66449 8.52083 7.44294 8.6489 7.18664L11.0622 2.39997L13.3956 7.22664C13.5209 7.4871 13.7078 7.71308 13.9401 7.885C14.1724 8.05693 14.4432 8.16962 14.7289 8.2133L20.0267 9.02664L16.1467 12.7377Z" fill="#B9CBD3"/>
</svg>
