<svg width="32" height="32" viewBox="0 0 32 32" fill="none" xmlns="http://www.w3.org/2000/svg">
  <path d="M13.1511 4.88H6.6222C5.64036 4.88 4.84442 5.67594 4.84442 6.65778V13.1867C4.84442 14.1685 5.64036 14.9644 6.6222 14.9644H13.1511C14.1329 14.9644 14.9289 14.1685 14.9289 13.1867V6.65778C14.9289 5.67594 14.1329 4.88 13.1511 4.88Z" fill="#6E7B91"/>
  <path d="M25.1466 4.88H18.6177C17.6359 4.88 16.84 5.67594 16.84 6.65778V13.1867C16.84 14.1685 17.6359 14.9644 18.6177 14.9644H25.1466C26.1285 14.9644 26.9244 14.1685 26.9244 13.1867V6.65778C26.9244 5.67594 26.1285 4.88 25.1466 4.88Z" fill="#6E7B91"/>
  <path d="M13.6133 16.5733H6.6222C5.64036 16.5733 4.84442 17.3693 4.84442 18.3511V25.3422C4.84442 26.324 5.64036 27.12 6.6222 27.12H13.6133C14.5951 27.12 15.3911 26.324 15.3911 25.3422V18.3511C15.3911 17.3693 14.5951 16.5733 13.6133 16.5733Z" fill="#6E7B91"/>
  <path d="M25.3822 16.5733H18.3911C17.4093 16.5733 16.6133 17.3693 16.6133 18.3511V25.3422C16.6133 26.324 17.4093 27.12 18.3911 27.12H25.3822C26.3641 27.12 27.16 26.324 27.16 25.3422V18.3511C27.16 17.3693 26.3641 16.5733 25.3822 16.5733Z" fill="#6E7B91"/>
</svg>
