<svg width="16" height="18" viewBox="0 0 16 18" fill="none" xmlns="http://www.w3.org/2000/svg">
<path d="M7.5064 0.830296C8.56411 0.827986 9.61939 0.93156 10.6565 1.13947C12.6923 1.55559 14.0243 2.85256 14.4054 4.77371C14.6405 5.93403 14.6819 7.12524 14.5279 8.29907C14.3997 9.43344 13.9994 10.5201 13.3612 11.4666C12.844 12.2017 12.0993 12.8803 11.3798 13.5356L10.9306 13.9478C10.2656 14.5681 9.587 15.167 8.94921 15.7114V14.7781C8.94921 14.5118 8.84356 14.2564 8.65545 14.0679C8.46734 13.8795 8.21214 13.7733 7.94585 13.7728C6.16859 13.7728 3.68548 13.1583 2.58685 12.0228C1.22571 10.6052 0.877646 8.53435 0.836811 7.04682C0.794033 5.6079 1.01765 3.01006 3.0263 1.77532C4.01605 1.16669 5.60469 0.830296 7.5064 0.830296ZM7.5064 0C5.71358 0 3.8566 0.287784 2.59268 1.06558C0.539305 2.33338 -0.0595967 4.79705 0.00457137 7.07015C0.0648504 9.03408 0.587917 11.1536 1.99184 12.5964C3.3277 13.9809 6.07526 14.6031 7.9478 14.6031C7.97092 14.6026 7.99392 14.6067 8.01539 14.6153C8.03686 14.6239 8.05637 14.6368 8.07273 14.6532C8.08909 14.6695 8.10196 14.689 8.11056 14.7105C8.11917 14.732 8.12333 14.755 8.1228 14.7781V16.7595C8.12144 16.8063 8.12969 16.8528 8.14702 16.8963C8.16435 16.9397 8.1904 16.9791 8.22356 17.0121C8.25673 17.0451 8.2963 17.0709 8.33984 17.088C8.38337 17.1051 8.42995 17.1131 8.4767 17.1115H8.50975C8.5809 17.1056 8.64866 17.0785 8.7042 17.0337C9.64728 16.2267 10.5923 15.4062 11.5023 14.5623C12.3754 13.7514 13.3651 12.9192 14.0476 11.9508C15.4885 9.90521 15.7024 7.01376 15.2143 4.61815C14.7554 2.31199 13.1162 0.810851 10.8198 0.340285C9.72933 0.117406 8.61941 0.00341799 7.5064 0" fill="#2CC3D5"/>
</svg>
